{"title":"Sherlock Holmes (2009) BDRip XviD-MAX","uid":5429274,"size":1729594955,"categoryP":"video","categoryS":"movies","magnet":"?xt=urn:btih:76470bb7771f821fec69fce5958daf9f4827217b&amp;dn=Sherlock+Holmes+%282009%29+BDRip+XviD-MAX&amp;tr=udp%3A%2F%2Ftracker.openbittorrent.com%3A80&amp;tr=udp%3A%2F%2Fopen.demonii.com%3A1337&amp;tr=udp%3A%2F%2Ftracker.coppersurfer.tk%3A6969&amp;tr=udp%3A%2F%2Fexodus.desync.com%3A6969","seeders":1,"leechers":0,"uploader":"extremezone","files":-1,"time":1268353784,"description":"Sherlock Holmes (2009) BDRip XviD-MAX\n\nFormat                           : AVI\nFormat/Info                      : Audio Video Interleave\nFile size                        : 1.61 GiB\nDuration                         : 2h 6mn\nOverall bit rate                 : 1 820 Kbps\nWriting application              : VirtualDubMod 1.5.10.2 (build 2542/release)\nWriting library                  : VirtualDubMod build 2542/release\nOriginal source form             : MAX TORRENTZ\nCopyright                        : SIGISMUNT\n\nVideo\nID                               : 0\nFormat                           : MPEG-4 Visual\nFormat profile                   : AdvancedSimple@L5\nFormat settings, BVOP            : Yes\nFormat settings, QPel            : No\nFormat settings, GMC             : No warppoints\nFormat settings, Matrix          : Custom\nCodec ID                         : XVID\nCodec ID/Hint                    : XviD\nDuration                         : 2h 6mn\nBit rate                         : 1 363 Kbps\nWidth                            : 720 pixels\nHeight                           : 400 pixels\nDisplay aspect ratio             : 16:9\nFrame rate                       : 23.976 fps\nResolution                       : 24 bits\nColorimetry                      : 4:2:0\nScan type                        : Progressive\nBits/(Pixel*Frame)               : 0.197\nStream size                      : 1.21 GiB (75%)\nWriting library                  : XviD 1.2.1 (UTC 2008-12-04)\n\nAudio\nID                               : 1\nFormat                           : AC-3\nFormat/Info                      : Audio Coding 3\nCodec ID                         : 2000\nDuration                         : 2h 6mn\nBit rate mode                    : Constant\nBit rate                         : 448 Kbps\nChannel(s)                       : 6 channels\nChannel positions                : Front: L C R, Surround: L R, LFE\nSampling rate                    : 48.0 KHz\nStream size                      : 406 MiB (25%)\nAlignment                        : Split accross interleaves\nInterleave, duration             : 42 ms (1.00 video frame)\nInterleave, preload duration     : 500 ms\n\nENCODE NOTE: Source - 1080p BluRay , perfect video and sound quality , no jerky movement or bad framerate as other rips\n &lt;a href=&quot;\nhttp://www.imdb.com/title/tt0988045/&quot; rel=&quot;nofollow&quot; target=&quot;_NEW&quot;&gt;\nhttp://www.imdb.com/title/tt0988045/&lt;/a&gt;\n\nScreens:\n &lt;a href=&quot;\nhttp://www.postimg.com/image/13000/12053.jpg&quot; rel=&quot;nofollow&quot; target=&quot;_NEW&quot;&gt;\nhttp://www.postimg.com/image/13000/12053.jpg&lt;/a&gt;\n &lt;a href=&quot;\nhttp://www.postimg.com/image/13000/12054.jpg&quot; rel=&quot;nofollow&quot; target=&quot;_NEW&quot;&gt;\nhttp://www.postimg.com/image/13000/12054.jpg&lt;/a&gt;\n &lt;a href=&quot;\nhttp://www.postimg.com/image/13000/12055.jpg&quot; rel=&quot;nofollow&quot; target=&quot;_NEW&quot;&gt;\nhttp://www.postimg.com/image/13000/12055.jpg&lt;/a&gt;\n &lt;a href=&quot;\nhttp://www.postimg.com/image/13000/12056.jpg&quot; rel=&quot;nofollow&quot; target=&quot;_NEW&quot;&gt;\nhttp://www.postimg.com/image/13000/12056.jpg&lt;/a&gt;\n &lt;a href=&quot;\nhttp://www.postimg.com/image/13000/12057.jpg&quot; rel=&quot;nofollow&quot; target=&quot;_NEW&quot;&gt;\nhttp://www.postimg.com/image/13000/12057.jpg&lt;/a&gt;\n\nScreenCaps:\n &lt;a href=&quot;\nhttp://www.postimg.com/image/13000/12058.jpg&quot; rel=&quot;nofollow&quot; target=&quot;_NEW&quot;&gt;\nhttp://www.postimg.com/image/13000/12058.jpg&lt;/a&gt;\n\nSherlock Holmes (2009) BDRip XviD-MAX Torrent Free Download\n &lt;a href=&quot;\nhttp://thepiratebay.se/user/extremezone/0/7&quot; rel=&quot;nofollow&quot; target=&quot;_NEW&quot;&gt;\nhttp://thepiratebay.se/user/extremezone/0/7&lt;/a&gt;","torrent":{"xt":"urn:btih:76470bb7771f821fec69fce5958daf9f4827217b","amp;dn":"Sherlock+Holmes+%282009%29+BDRip+XviD-MAX","amp;tr":["udp%3A%2F%2Ftracker.openbittorrent.com%3A80","udp%3A%2F%2Fopen.demonii.com%3A1337","udp%3A%2F%2Ftracker.coppersurfer.tk%3A6969","udp%3A%2F%2Fexodus.desync.com%3A6969"],"infoHash":"76470bb7771f821fec69fce5958daf9f4827217b","infoHashBuffer":{"type":"Buffer","data":[118,71,11,183,119,31,130,31,236,105,252,229,149,141,175,159,72,39,33,123]},"announce":[],"urlList":[]}}